<svg width="600" height="500" viewBox="0 0 464 403" fill="none" xmlns="http://www.w3.org/2000/svg">
<path d="M225.365 388.599L16.8896 245.911C10.2544 241.599 4.5588 234.506 11.0316 229.871L220.261 90.1645C223.404 87.9077 228.172 86.4301 231.362 88.5794L450.208 235.728C456.843 240.188 458.038 252.654 451.368 257.127L252.88 388.371C248.708 391.179 243.974 392.677 239.149 392.717C234.323 392.757 229.572 391.338 225.365 388.599Z" fill="#2A8178"/>
<path d="M399.376 204.952L356.387 233.901L410.164 274.04L451.727 243.6C437.772 231.94 413.575 216.277 399.376 204.952Z" fill="url(#paint0_linear_3_3)"/>
<path d="M200.077 349.28L244.238 382.272L398.82 280.166L349.81 248.463" fill="url(#paint1_linear_3_3)"/>
<path d="M352.396 253.205V258.417L350.123 261.641" fill="#ADCEE1"/>
<path d="M261.893 189.706L349.81 252.842C350.613 253.42 351.272 254.23 351.724 255.192C352.175 256.154 352.403 257.236 352.384 258.33C352.365 259.425 352.101 260.496 351.617 261.436C351.133 262.377 350.446 263.156 349.624 263.696L216.224 351.08C214.359 352.301 212.25 352.932 210.108 352.911C207.967 352.89 205.867 352.217 204.021 350.959L116.499 291.382C110.142 285.337 110.618 273.919 116.499 273.462L249.191 189.41C251.135 188.128 253.341 187.479 255.577 187.531C257.813 187.583 259.996 188.334 261.893 189.706Z" fill="#88D3D8"/>
<path d="M261.893 185.38L349.81 248.517C350.613 249.094 351.272 249.904 351.724 250.866C352.175 251.829 352.403 252.91 352.384 254.005C352.365 255.1 352.101 256.17 351.617 257.111C351.133 258.051 350.446 258.83 349.624 259.371L216.224 346.755C214.359 347.975 212.25 348.607 210.108 348.586C207.967 348.564 205.867 347.891 204.021 346.634L116.499 287.057C115.473 286.367 114.622 285.377 114.03 284.187C113.438 282.996 113.127 281.647 113.127 280.273C113.127 278.899 113.438 277.55 114.03 276.359C114.622 275.169 115.473 274.179 116.499 273.489L249.191 185.111C251.133 183.825 253.338 183.172 255.574 183.219C257.81 183.266 259.994 184.013 261.893 185.38Z" fill="white"/>
<path d="M258.309 176.729C258.309 176.729 221.804 40.3 222.036 40.3C222.268 40.3 220.876 34.2416 214.368 37.6133L74.24 133.138C74.24 133.138 67.4424 136.321 68.7764 143.656C70.1104 150.991 104.47 277.183 104.47 277.183C105.181 278.391 106.208 279.304 107.4 279.787C108.592 280.27 109.886 280.3 111.093 279.87C115.362 278.339 255.026 184.386 255.026 184.386C256.316 183.84 257.376 182.741 257.987 181.316C258.598 179.891 258.713 178.249 258.309 176.729Z" fill="#053855"/>
<path d="M219.704 50.2004L76.2236 147.055L105.978 262.769L251.314 168.776L219.704 50.2004Z" fill="#5AA1B2"/>
<path d="M267.299 199.821L299.442 222.993C300.013 223.404 300.481 223.979 300.802 224.662C301.123 225.345 301.285 226.113 301.272 226.891C301.259 227.668 301.072 228.429 300.729 229.097C300.386 229.766 299.898 230.319 299.315 230.704L183.941 306.871C182.216 308.023 180.26 308.629 178.269 308.629C176.278 308.629 174.321 308.023 172.596 306.871C165.172 301.86 152.412 292.847 144.594 287.299C143.894 286.805 143.318 286.11 142.92 285.28C142.523 284.45 142.319 283.515 142.328 282.566C142.338 281.618 142.56 280.688 142.974 279.869C143.387 279.05 143.978 278.37 144.687 277.895C168.026 262.178 244.157 210.903 260.814 199.713C261.801 199.046 262.927 198.703 264.07 198.722C265.212 198.741 266.329 199.121 267.299 199.821Z" fill="#5AA1B2"/>
<path d="M265.57 262.769L225.26 289.018C224.648 289.422 224.139 290.005 223.782 290.709C223.426 291.413 223.235 292.213 223.229 293.029C223.223 293.845 223.402 294.648 223.749 295.359C224.095 296.069 224.596 296.662 225.202 297.078L248.901 313.198C249.716 313.744 250.64 314.032 251.581 314.032C252.522 314.032 253.446 313.744 254.26 313.198L295.51 285.969C296.015 285.625 296.434 285.134 296.725 284.545C297.016 283.956 297.169 283.289 297.169 282.61C297.169 281.932 297.016 281.265 296.725 280.676C296.434 280.087 296.015 279.596 295.51 279.252L270.86 262.796C270.056 262.261 269.146 261.977 268.218 261.972C267.291 261.968 266.378 262.242 265.57 262.769Z" fill="#5AA1B2"/>
<path opacity="0.1" d="M267.299 199.821L299.442 222.993C300.013 223.404 300.481 223.979 300.802 224.662C301.123 225.345 301.285 226.113 301.272 226.891C301.259 227.668 301.072 228.429 300.729 229.097C300.386 229.766 299.898 230.319 299.315 230.704L183.941 306.871C182.216 308.023 180.26 308.629 178.269 308.629C176.278 308.629 174.321 308.023 172.596 306.871C165.172 301.86 152.412 292.847 144.594 287.299C143.894 286.805 143.318 286.11 142.92 285.28C142.523 284.45 142.319 283.515 142.328 282.566C142.338 281.618 142.56 280.688 142.974 279.869C143.387 279.05 143.978 278.37 144.687 277.895C168.026 262.178 244.157 210.903 260.814 199.713C261.801 199.046 262.927 198.703 264.07 198.722C265.212 198.741 266.329 199.121 267.299 199.821Z" fill="#053855"/>
<path opacity="0.1" d="M265.57 262.769L225.26 289.018C224.648 289.422 224.139 290.005 223.782 290.709C223.426 291.413 223.235 292.213 223.229 293.029C223.223 293.845 223.402 294.648 223.749 295.359C224.095 296.069 224.596 296.662 225.202 297.078L248.901 313.198C249.716 313.744 250.64 314.032 251.581 314.032C252.522 314.032 253.446 313.744 254.26 313.198L295.51 285.969C296.015 285.625 296.434 285.134 296.725 284.545C297.016 283.956 297.169 283.289 297.169 282.61C297.169 281.932 297.016 281.265 296.725 280.676C296.434 280.087 296.015 279.596 295.51 279.252L270.86 262.796C270.056 262.261 269.146 261.977 268.218 261.972C267.291 261.968 266.378 262.242 265.57 262.769Z" fill="#053855"/>
<path opacity="0.32" d="M195.112 257.584L239.285 290.576L264.573 270.991L219.321 245.037" fill="url(#paint2_linear_3_3)"/>
<path d="M115.733 153.382C116.451 154.35 116.97 155.493 117.253 156.727C117.358 157.17 117.338 157.641 117.195 158.07C117.084 158.443 116.862 158.757 116.568 158.957L110.826 162.543C111.12 163.425 111.693 164.146 112.427 164.558C112.734 164.716 113.068 164.787 113.403 164.766C113.737 164.745 114.063 164.632 114.353 164.437C114.749 164.208 115.11 163.904 115.42 163.537C115.621 163.274 115.796 162.986 115.942 162.678L116.186 162.167C116.309 161.907 116.489 161.69 116.708 161.536C116.816 161.454 116.943 161.411 117.073 161.411C117.203 161.411 117.33 161.454 117.438 161.536C117.697 161.725 117.88 162.024 117.949 162.369C118.067 162.936 118.014 163.534 117.798 164.061C117.542 164.76 117.194 165.408 116.766 165.982C116.333 166.583 115.81 167.088 115.223 167.473C114.386 168.063 113.393 168.283 112.427 168.091C111.512 167.853 110.693 167.261 110.107 166.412C109.375 165.368 108.845 164.154 108.553 162.852C108.163 161.338 108.021 159.752 108.135 158.178C108.212 156.829 108.536 155.514 109.086 154.322C109.531 153.333 110.212 152.513 111.047 151.958C111.412 151.72 111.814 151.568 112.23 151.511C112.646 151.453 113.068 151.491 113.471 151.622C114.36 151.933 115.148 152.546 115.733 153.382ZM114.712 156.834V156.633C114.621 156.29 114.471 155.972 114.272 155.698C114.073 155.423 113.828 155.197 113.552 155.034C113.289 154.889 113 154.82 112.709 154.834C112.417 154.848 112.134 154.945 111.882 155.115C110.536 155.961 109.991 157.492 110.258 159.709L114.817 156.834" fill="#2C6E8C"/>
<path d="M108.53 168.87C108.68 169.069 108.79 169.303 108.854 169.556C108.93 169.904 108.93 170.268 108.854 170.617C108.811 170.832 108.727 171.034 108.609 171.208C108.49 171.382 108.341 171.524 108.17 171.624C107.913 171.793 107.614 171.855 107.323 171.799C106.302 171.544 105.49 170.227 104.91 167.849C104.864 167.574 104.769 167.312 104.631 167.081C104.493 166.85 104.316 166.654 104.11 166.506C103.898 166.394 103.665 166.348 103.434 166.371C103.202 166.395 102.979 166.488 102.788 166.64L99.528 168.696L100.92 174.19C101.018 174.631 101.018 175.093 100.92 175.533C100.889 175.723 100.824 175.903 100.728 176.06C100.632 176.218 100.507 176.35 100.363 176.447C100.209 176.54 100.038 176.588 99.8644 176.588C99.6907 176.588 99.5196 176.54 99.3656 176.447C99.1947 176.349 99.0452 176.208 98.9286 176.033C98.8121 175.859 98.7314 175.655 98.6928 175.439L94.714 159.185C94.5899 158.721 94.5899 158.225 94.714 157.761C94.7601 157.559 94.8402 157.37 94.9497 157.204C95.0591 157.038 95.1959 156.898 95.352 156.794L100.363 153.637C100.941 153.259 101.624 153.157 102.266 153.355C102.977 153.576 103.613 154.045 104.087 154.698C104.675 155.516 105.099 156.475 105.328 157.506C105.563 158.503 105.634 159.542 105.537 160.569C105.466 161.582 105.23 162.572 104.841 163.484C105.329 163.698 105.767 164.044 106.118 164.492C106.469 164.941 106.723 165.479 106.859 166.063C106.969 166.335 107.058 166.619 107.126 166.909C107.257 167.313 107.408 167.708 107.578 168.091C107.622 168.193 107.685 168.282 107.764 168.35C107.842 168.417 107.934 168.462 108.031 168.481C108.228 168.547 108.403 168.683 108.53 168.87ZM103.321 160.918C103.311 160.29 103.229 159.667 103.078 159.064C102.966 158.582 102.782 158.127 102.532 157.721C102.339 157.401 102.08 157.143 101.778 156.968C101.669 156.903 101.548 156.868 101.425 156.868C101.301 156.868 101.18 156.903 101.071 156.968L97.266 159.373L98.8436 165.794L102.648 163.39C102.777 163.292 102.887 163.165 102.972 163.018C103.058 162.87 103.117 162.704 103.147 162.53C103.275 162.006 103.334 161.462 103.321 160.918Z" fill="#2C6E8C"/>
<path d="M134.2 141.749C134.92 142.71 135.439 143.85 135.72 145.08C135.825 145.523 135.805 145.994 135.662 146.423C135.553 146.797 135.33 147.112 135.036 147.31L129.294 150.923C129.588 151.806 130.16 152.526 130.894 152.938C131.198 153.097 131.53 153.169 131.863 153.151C132.195 153.132 132.519 153.022 132.808 152.831C133.205 152.603 133.566 152.298 133.876 151.931C134.078 151.669 134.254 151.381 134.398 151.071L134.641 150.547C134.764 150.287 134.944 150.069 135.163 149.916C135.272 149.833 135.399 149.788 135.529 149.788C135.659 149.788 135.786 149.833 135.894 149.916C136.152 150.105 136.336 150.404 136.404 150.749C136.527 151.315 136.478 151.913 136.265 152.441C136.012 153.145 135.663 153.798 135.233 154.376C134.801 154.977 134.278 155.482 133.69 155.867C132.852 156.455 131.86 156.674 130.894 156.485C129.98 156.245 129.162 155.653 128.574 154.806C127.838 153.765 127.308 152.55 127.02 151.246C126.631 149.736 126.485 148.156 126.591 146.585C126.672 145.235 127 143.921 127.554 142.729C127.994 141.741 128.671 140.92 129.502 140.365C129.867 140.127 130.27 139.974 130.686 139.917C131.102 139.859 131.524 139.897 131.927 140.029C132.816 140.327 133.608 140.926 134.2 141.749ZM133.18 145.201V144.999C133.088 144.657 132.938 144.339 132.739 144.064C132.54 143.79 132.295 143.564 132.02 143.401C131.757 143.255 131.467 143.187 131.176 143.201C130.885 143.215 130.601 143.311 130.349 143.481C129.004 144.323 128.462 145.855 128.725 148.076L133.284 145.201" fill="#2C6E8C"/>
<path d="M120.188 146.222C120.775 145.851 121.432 145.652 122.102 145.644C122.752 145.621 123.387 145.874 123.888 146.356C124.123 146.581 124.29 146.887 124.364 147.229C124.482 147.672 124.457 148.15 124.294 148.573C124.199 148.848 124.028 149.08 123.807 149.231C123.7 149.311 123.575 149.354 123.447 149.354C123.32 149.354 123.195 149.311 123.088 149.231C122.786 148.949 122.418 148.78 122.032 148.747C121.625 148.739 121.224 148.86 120.872 149.097C120.481 149.28 120.165 149.63 119.99 150.075C119.815 150.52 119.795 151.026 119.932 151.488C119.993 151.833 120.168 152.137 120.42 152.334C120.651 152.49 120.917 152.565 121.185 152.549C121.464 152.549 121.87 152.549 122.345 152.401C122.936 152.3 123.535 152.265 124.132 152.294C124.655 152.353 125.148 152.607 125.535 153.019C126.057 153.618 126.42 154.378 126.579 155.209C126.795 156.083 126.827 157.004 126.672 157.895C126.518 158.753 126.21 159.563 125.767 160.273C125.374 160.918 124.863 161.455 124.271 161.845C123.564 162.314 122.765 162.564 121.951 162.57C121.164 162.56 120.409 162.205 119.84 161.576C119.657 161.377 119.528 161.12 119.468 160.837C119.347 160.319 119.401 159.766 119.619 159.292C119.712 159.056 119.866 158.859 120.06 158.728C120.194 158.653 120.343 158.623 120.491 158.642C120.639 158.661 120.779 158.728 120.895 158.836C121.315 159.167 121.795 159.378 122.299 159.454C122.816 159.483 123.329 159.333 123.772 159.024C124.169 158.807 124.485 158.429 124.658 157.961C124.831 157.493 124.85 156.968 124.712 156.485C124.679 156.257 124.589 156.044 124.452 155.875C124.316 155.705 124.14 155.586 123.946 155.531C123.401 155.428 122.844 155.428 122.299 155.531C121.681 155.642 121.056 155.683 120.431 155.652C119.905 155.603 119.406 155.364 119.004 154.967C118.461 154.383 118.087 153.618 117.937 152.777C117.714 151.905 117.678 150.983 117.833 150.091C117.98 149.246 118.276 148.446 118.703 147.74C119.098 147.116 119.604 146.598 120.188 146.222Z" fill="#2C6E8C"/>
<path d="M162.4 113.283C162.53 113.188 162.681 113.137 162.835 113.137C162.989 113.137 163.14 113.188 163.27 113.283C163.574 113.536 163.789 113.909 163.873 114.331L165.404 120.591C165.549 119.718 165.807 118.876 166.17 118.092C166.489 117.365 166.985 116.763 167.597 116.36C168.008 115.995 168.519 115.816 169.035 115.856C169.552 115.895 170.038 116.151 170.404 116.574C171.284 117.834 171.896 119.316 172.19 120.9L173.965 128.154C174.086 128.618 174.086 129.114 173.965 129.578C173.923 129.78 173.846 129.97 173.738 130.136C173.63 130.302 173.494 130.442 173.339 130.545C173.209 130.642 173.058 130.694 172.904 130.694C172.749 130.694 172.598 130.642 172.469 130.545C172.161 130.297 171.945 129.922 171.866 129.497L170.102 122.243C169.947 121.42 169.611 120.657 169.128 120.027C168.916 119.811 168.644 119.693 168.362 119.693C168.081 119.693 167.808 119.811 167.597 120.027C167.279 120.224 167.001 120.495 166.779 120.823C166.557 121.152 166.397 121.53 166.309 121.934C166.094 122.813 166.094 123.743 166.309 124.621L168.084 131.875C168.201 132.34 168.201 132.834 168.084 133.299C168.041 133.5 167.963 133.69 167.855 133.856C167.748 134.022 167.612 134.161 167.458 134.266C167.328 134.363 167.177 134.415 167.023 134.415C166.868 134.415 166.717 134.363 166.588 134.266C166.279 134.018 166.064 133.643 165.984 133.218L161.692 115.755C161.573 115.29 161.573 114.796 161.692 114.331C161.735 114.106 161.82 113.895 161.943 113.714C162.065 113.532 162.222 113.385 162.4 113.283Z" fill="#2C6E8C"/>
<path d="M157.76 122.566C158.528 122.006 159.43 121.743 160.335 121.813C160.667 121.85 160.981 122.007 161.231 122.263C161.481 122.519 161.655 122.86 161.727 123.237C161.81 123.644 161.81 124.067 161.727 124.473C161.703 124.645 161.647 124.808 161.563 124.952C161.479 125.096 161.369 125.217 161.24 125.306C161.097 125.408 160.932 125.463 160.764 125.467C160.621 125.449 160.481 125.409 160.347 125.346C160.212 125.277 160.072 125.224 159.929 125.185C159.737 125.177 159.545 125.204 159.361 125.266C159.159 125.31 158.964 125.387 158.781 125.494C158.353 125.765 157.979 126.137 157.683 126.586C157.388 127.035 157.177 127.551 157.064 128.1C156.787 129.389 156.823 130.742 157.168 132.009C157.384 133.164 157.943 134.196 158.746 134.924C159.063 135.207 159.447 135.372 159.847 135.396C160.247 135.42 160.644 135.302 160.985 135.059C161.446 134.793 161.844 134.401 162.145 133.917C162.225 133.767 162.295 133.61 162.354 133.447C162.425 133.26 162.511 133.08 162.609 132.909C162.702 132.757 162.825 132.633 162.968 132.547C163.086 132.453 163.226 132.403 163.369 132.403C163.511 132.403 163.651 132.453 163.769 132.547C164.041 132.802 164.229 133.158 164.302 133.554C164.408 134.09 164.346 134.651 164.128 135.139C163.875 135.797 163.517 136.394 163.073 136.899C162.606 137.476 162.061 137.961 161.46 138.336C160.678 138.884 159.74 139.053 158.85 138.807C157.922 138.509 157.105 137.862 156.53 136.966C155.814 135.88 155.293 134.637 154.999 133.312C154.633 131.871 154.491 130.365 154.582 128.866C154.65 127.53 154.971 126.228 155.521 125.051C156.035 123.981 156.815 123.115 157.76 122.566Z" fill="#2C6E8C"/>
<path d="M151.38 126.582C151.529 126.477 151.697 126.415 151.871 126.403C152.046 126.392 152.219 126.43 152.378 126.515C152.537 126.601 152.677 126.729 152.787 126.887C152.898 127.045 152.976 127.23 153.016 127.429C153.139 127.92 153.139 128.442 153.016 128.933C152.977 129.111 152.908 129.277 152.813 129.423C152.717 129.568 152.596 129.69 152.459 129.779C152.262 129.899 152.043 129.959 151.821 129.954H151.554C151.407 129.976 151.265 130.031 151.136 130.115C150.802 130.352 150.536 130.698 150.371 131.109C150.151 131.681 150.032 132.297 150.023 132.923C150.002 133.722 150.092 134.521 150.29 135.287L151.937 142.004C152.055 142.469 152.055 142.963 151.937 143.428C151.892 143.63 151.812 143.82 151.703 143.986C151.593 144.153 151.456 144.292 151.299 144.395C151.169 144.49 151.018 144.541 150.864 144.541C150.71 144.541 150.559 144.49 150.429 144.395C150.126 144.137 149.915 143.76 149.837 143.334L147.042 131.647C146.926 131.182 146.926 130.688 147.042 130.223C147.085 130.021 147.163 129.832 147.27 129.666C147.378 129.5 147.513 129.36 147.668 129.256C147.8 129.159 147.953 129.107 148.109 129.107C148.265 129.107 148.418 129.159 148.55 129.256C148.851 129.515 149.061 129.892 149.141 130.317L149.234 130.679C149.299 129.792 149.545 128.936 149.953 128.181C150.305 127.518 150.796 126.968 151.38 126.582Z" fill="#2C6E8C"/>
<path d="M144.095 131.727C144.408 131.977 144.624 132.357 144.698 132.788L147.633 144.758C147.754 145.222 147.754 145.717 147.633 146.182C147.591 146.384 147.514 146.573 147.406 146.74C147.298 146.906 147.162 147.045 147.007 147.149C146.879 147.245 146.73 147.296 146.578 147.296C146.425 147.296 146.276 147.245 146.148 147.149C145.846 146.906 145.631 146.542 145.545 146.128C145.377 146.891 145.094 147.614 144.71 148.264C144.36 148.918 143.874 149.458 143.295 149.835C142.931 150.078 142.53 150.235 142.114 150.297C141.698 150.36 141.275 150.326 140.87 150.198C139.98 149.877 139.2 149.238 138.643 148.371C137.907 147.278 137.374 146.02 137.077 144.677C136.717 143.243 136.568 141.749 136.636 140.257C136.686 138.95 136.97 137.669 137.472 136.496C137.875 135.504 138.531 134.679 139.351 134.132C139.863 133.798 140.445 133.631 141.033 133.648C141.576 133.667 142.109 133.832 142.587 134.132C142.467 133.658 142.467 133.155 142.587 132.681C142.631 132.48 142.709 132.29 142.816 132.124C142.924 131.958 143.059 131.819 143.214 131.714C143.346 131.618 143.5 131.568 143.656 131.57C143.812 131.572 143.965 131.627 144.095 131.727ZM144.327 144.032C144.583 142.767 144.543 141.445 144.211 140.204C143.989 139.047 143.442 138.008 142.657 137.248C142.357 136.959 141.987 136.785 141.598 136.751C141.209 136.717 140.821 136.825 140.488 137.06C140.098 137.328 139.763 137.69 139.504 138.121C139.246 138.552 139.071 139.042 138.991 139.559C138.741 140.835 138.785 142.164 139.119 143.414C139.337 144.562 139.875 145.596 140.65 146.356C140.948 146.648 141.319 146.823 141.708 146.857C142.098 146.891 142.487 146.781 142.819 146.544C143.212 146.279 143.55 145.919 143.811 145.487C144.071 145.056 144.247 144.564 144.327 144.046" fill="#2C6E8C"/>
<path d="M101.593 191.035L195.553 127.617C195.888 127.391 196.263 127.257 196.65 127.225C197.037 127.193 197.425 127.264 197.784 127.432C198.144 127.601 198.465 127.863 198.724 128.197C198.982 128.532 199.171 128.931 199.276 129.363C199.425 129.987 199.392 130.65 199.182 131.25C198.973 131.85 198.598 132.353 198.116 132.681L104.4 196.852C104.067 197.078 103.694 197.214 103.309 197.249C102.924 197.283 102.538 197.215 102.179 197.051C101.82 196.886 101.498 196.629 101.238 196.299C100.977 195.969 100.785 195.575 100.676 195.146L100.491 194.407C100.325 193.783 100.344 193.113 100.544 192.503C100.743 191.893 101.112 191.376 101.593 191.035Z" fill="white"/>
<path d="M197.2 116.601C189.834 116.601 183.837 108.367 183.837 98.238C183.837 88.1092 189.834 79.8746 197.2 79.8746C204.566 79.8746 210.563 88.1092 210.563 98.238C210.563 108.367 204.566 116.601 197.2 116.601ZM197.2 85.2479C192.398 85.2479 188.477 91.078 188.477 98.238C188.477 105.398 192.386 111.228 197.2 111.228C202.014 111.228 205.923 105.398 205.923 98.238C205.923 91.078 202.002 85.2479 197.2 85.2479Z" fill="white"/>
<path d="M222.627 105.277L210.238 99.7291C207.164 98.3857 205.297 103.88 208.371 105.25L220.76 110.798C223.88 112.182 225.713 106.661 222.627 105.277Z" fill="white"/>
<path d="M148.932 176.702L105.084 206.255C104.596 206.586 104.216 207.095 104.006 207.704C103.796 208.312 103.767 208.984 103.924 209.614L104.11 210.353C104.212 210.794 104.4 211.202 104.662 211.544C104.923 211.886 105.249 212.153 105.615 212.324C105.981 212.495 106.376 212.564 106.769 212.528C107.162 212.491 107.543 212.349 107.88 212.112L151.554 182.223C151.999 181.918 152.364 181.478 152.607 180.95C152.85 180.421 152.964 179.825 152.934 179.228V179.16C152.913 178.632 152.773 178.119 152.528 177.672C152.283 177.225 151.942 176.859 151.538 176.611C151.134 176.363 150.682 176.241 150.225 176.257C149.768 176.273 149.323 176.426 148.932 176.702Z" fill="white"/>
<path d="M200.262 142.904L156.414 172.457C155.926 172.787 155.546 173.297 155.336 173.905C155.126 174.514 155.097 175.186 155.254 175.815L155.44 176.554C155.549 176.983 155.741 177.378 156.001 177.708C156.262 178.038 156.583 178.295 156.942 178.459C157.301 178.624 157.688 178.691 158.073 178.657C158.458 178.622 158.831 178.487 159.164 178.26L202.838 148.371C203.283 148.067 203.647 147.626 203.891 147.098C204.134 146.569 204.247 145.973 204.218 145.376V145.308C204.185 144.792 204.038 144.295 203.793 143.862C203.548 143.429 203.212 143.076 202.816 142.836C202.42 142.595 201.978 142.475 201.532 142.487C201.085 142.499 200.648 142.642 200.262 142.904Z" fill="white"/>
<path d="M154.918 190.874L111.07 220.428C110.581 220.758 110.202 221.268 109.992 221.876C109.782 222.484 109.753 223.156 109.91 223.786L110.096 224.525C110.205 224.954 110.397 225.348 110.657 225.678C110.917 226.008 111.239 226.265 111.598 226.43C111.957 226.594 112.344 226.662 112.728 226.627C113.113 226.593 113.486 226.457 113.819 226.231L157.493 196.342C157.935 196.051 158.3 195.629 158.551 195.118C158.802 194.607 158.93 194.028 158.92 193.44V193.373C158.904 192.841 158.768 192.323 158.526 191.87C158.283 191.418 157.943 191.047 157.538 190.794C157.133 190.541 156.678 190.416 156.219 190.43C155.759 190.444 155.311 190.597 154.918 190.874Z" fill="white"/>
<path d="M213.869 131.472C217.647 135.239 220.503 140.089 222.152 145.537C225.063 154.833 217.79 170.039 217.79 170.039L206.48 159.682" fill="#FF8F6F"/>
<path d="M215.122 254.481L218.196 252.547L217.419 247.469C217.419 247.469 212.848 247.966 212.442 249.86" fill="#003B94"/>
<path d="M213.962 254.4C213.266 253.917 212.547 253.474 211.839 253.057C210.064 251.929 207.501 250.773 206.41 248.664C206.192 248.243 206.088 247.754 206.113 247.263C206.137 246.771 206.29 246.3 206.55 245.911C208.162 243.654 211.677 247.361 213.51 244.863C213.869 244.366 214.032 236.548 214.032 236.548L220.876 238.683C220.876 238.683 222.036 254.4 221.908 255.381C221.78 256.362 219.426 257.289 219.426 257.289C218.729 257.129 218.061 256.829 217.454 256.402C216.734 255.798 217.384 248.423 216.479 249.457C215.574 250.491 215.168 254.521 215.168 254.521C214.763 254.541 214.358 254.501 213.962 254.4Z" fill="#5AA1B2"/>
<path d="M202.026 262.071L205.1 260.11L204.322 255.032C204.322 255.032 199.752 255.529 199.346 257.423" fill="#003B94"/>
<path d="M200.866 261.95C200.17 261.466 199.45 261.023 198.743 260.607C196.968 259.478 194.404 258.323 193.314 256.214C193.095 255.792 192.991 255.303 193.016 254.812C193.041 254.321 193.193 253.85 193.453 253.46C195.066 251.203 198.58 254.911 200.413 252.412C200.773 251.915 200.935 244.097 200.935 244.097L207.779 246.233C207.779 246.233 208.939 261.95 208.812 262.931C208.684 263.911 206.329 264.838 206.329 264.838C205.632 264.679 204.965 264.379 204.357 263.952C203.638 263.347 204.288 255.972 203.383 257.007C202.478 258.041 202.072 262.071 202.072 262.071C201.667 262.091 201.262 262.05 200.866 261.95Z" fill="#5AA1B2"/>
<path d="M224.321 210.903L226.304 242.136C226.304 242.136 223.103 247.267 212.326 244.419L212.222 223.356" fill="#EE6300"/>
<path d="M211.839 217.15C212.071 219.837 211.839 249.497 211.839 249.497C211.839 249.497 208.858 255.959 195.889 249.497L196.04 224.337" fill="#EE6300"/>
<path d="M225.33 221.274C224.448 221.972 224.17 218.345 223.219 218.963C219.855 221.204 216.288 223.006 212.582 224.337H212.5C212.412 224.287 212.317 224.259 212.219 224.253C212.121 224.247 212.023 224.264 211.931 224.303C211.839 224.342 211.755 224.402 211.683 224.479C211.612 224.556 211.554 224.65 211.514 224.753C209.23 225.532 206.905 226.142 204.554 226.58C201.527 227.144 199.021 224.552 195.912 224.364C195.912 210.581 195.912 171.302 200.924 163L215.888 157.17C215.957 158.607 223.172 168.279 222.998 180.007C222.801 193.292 224.298 205.839 224.553 209.99C224.588 210.903 225.295 220.522 225.33 221.274Z" fill="#EE6300"/>
<path d="M199.52 147.216L200.9 163.04C200.9 163.04 212.094 163.564 216.92 159.709V146.276" fill="#FF8F6F"/>
<path d="M180.473 132.56L181.633 134.36C181.023 132.892 180.484 131.385 180.02 129.847C179.707 128.799 181.18 128.382 181.47 129.43L181.633 129.968C181.494 129.412 181.362 128.853 181.238 128.288C181.219 128.079 181.266 127.868 181.37 127.695C181.475 127.522 181.63 127.399 181.807 127.348C181.983 127.297 182.17 127.322 182.332 127.419C182.494 127.515 182.621 127.676 182.688 127.872C183.012 129.335 183.399 130.779 183.848 132.197C183.602 130.94 183.424 129.666 183.315 128.382C183.222 127.281 184.718 127.321 184.811 128.382C184.935 129.843 185.16 131.289 185.484 132.708C185.484 132.215 185.523 131.723 185.6 131.23C185.611 131.107 185.645 130.989 185.699 130.882C185.753 130.776 185.826 130.684 185.913 130.612C185.913 130.424 186.006 130.223 186.064 130.035C186.124 129.845 186.238 129.686 186.387 129.583C186.537 129.48 186.713 129.44 186.885 129.47C187.057 129.5 187.215 129.598 187.332 129.747C187.448 129.897 187.517 130.089 187.526 130.29L187.618 136.832C187.891 137.51 188.247 138.139 188.674 138.699C187.951 139.285 187.254 139.913 186.586 140.58C185.988 141.175 185.419 141.807 184.881 142.474C184.401 141.784 183.937 141.077 183.489 140.351C183.435 140.296 183.389 140.233 183.35 140.163C182.012 137.871 180.627 135.632 179.197 133.447C178.64 132.52 179.904 131.647 180.473 132.56Z" fill="#FFB5A9"/>
<path d="M204.16 129.685C204.16 129.685 198.87 131.338 196.736 135.301C195.394 138.027 194.212 140.854 193.198 143.764L189.3 136.738C189.3 136.738 184.568 138.417 182.677 141.117C182.677 141.117 188.303 155.356 193.198 156.565C198.093 157.774 203.29 148.129 203.29 148.129C203.29 148.129 204.369 152.159 204.16 147.861" fill="#FF8F6F"/>
<path d="M201.156 148.143C202.298 146.269 202.968 144.065 203.093 141.775C203.093 139.169 201.84 137.302 200.587 135.287C199.279 133.317 198.26 131.112 197.571 128.758C196.945 126.435 196.608 124.017 196.179 121.625C196.165 121.519 196.129 121.418 196.075 121.33C196.075 118.469 196.968 115.782 199.648 114.613C206.608 111.604 209.194 120.604 210.088 124.326C210.981 128.047 211.248 130.666 213.927 131.459C216.607 132.251 219.344 135.757 217.894 139.774C216.444 143.79 218.173 141.937 220.377 144.368C222.581 146.799 223.08 150.574 220.319 152.885C217.558 155.195 202.652 157.372 200.958 156.243C200.362 155.763 199.947 155.038 199.798 154.215C199.609 152.068 200.09 149.913 201.156 148.143Z" fill="#007F68"/>
<path d="M362.175 117.434L351.364 124.111L380.874 156.283L406.893 165.754L415.558 152.146" fill="#FFE8BC"/>
<path d="M402.914 158.916L412.948 152.294L362.175 117.434L363.37 116.628L415.558 152.146V242.861L404.179 250.357L399.829 245.118" fill="#5AA1B2"/>
<path opacity="0.42" d="M402.914 158.916L412.948 152.294L362.175 117.434L363.37 116.628L415.558 152.146V242.861L404.179 250.357L399.829 245.118" fill="#1371A5"/>
<path d="M351.364 124.111L404.179 159.763V250.357L350.529 213.227L351.364 124.111Z" fill="#5AA1B2"/>
<path d="M402.184 153.812L398.959 156.176V175.493L396.906 172.457L395.467 174.338V153.879L398.483 151.38L402.184 153.812Z" fill="#E85858"/>
<path d="M329.66 112.343L318.849 119.033L348.36 151.206L374.39 160.676L383.044 147.068" fill="#FFE8BC"/>
<path d="M370.4 153.825L380.434 147.216L329.66 112.343L330.855 111.55L383.044 147.068V237.77L371.664 245.279L367.314 240.027" fill="#5AA1B2"/>
<path opacity="0.42" d="M370.4 153.825L380.434 147.216L329.66 112.343L330.855 111.55L383.044 147.068V237.77L371.664 245.279L367.314 240.027" fill="#1371A5"/>
<path d="M318.849 119.033L371.664 154.685V245.279L318.014 208.149L318.849 119.033Z" fill="#5AA1B2"/>
<path d="M369.669 148.734L366.444 151.098V170.415L364.391 167.379L362.952 169.26V148.801L365.968 146.302L369.669 148.734Z" fill="#E85858"/>
<defs>
<linearGradient id="paint0_linear_3_3" x1="416.324" y1="259.733" x2="383.213" y2="217.555" gradientUnits="userSpaceOnUse">
<stop stop-color="#2A8178"/>
<stop offset="1" stop-color="#0F2D2A"/>
</linearGradient>
<linearGradient id="paint1_linear_3_3" x1="307.156" y1="327.894" x2="278.694" y2="291.621" gradientUnits="userSpaceOnUse">
<stop stop-color="#2A8178"/>
<stop offset="1" stop-color="#0F2D2A"/>
</linearGradient>
<linearGradient id="paint2_linear_3_3" x1="239.354" y1="279.951" x2="222.901" y2="259.743" gradientUnits="userSpaceOnUse">
<stop stop-color="white" stop-opacity="0"/>
<stop offset="1" stop-color="#17619E"/>
</linearGradient>
</defs>
</svg>
