<svg width="392" height="372" viewBox="0 0 392 372" fill="none" xmlns="http://www.w3.org/2000/svg">
<g clip-path="url(#clip0_13_487)">
<rect width="392" height="372" fill="#F2F2F2"/>
<path d="M101.948 203.575C103.21 207.322 102.306 211.013 99.9295 211.818C97.5533 212.623 94.6051 210.239 93.3436 206.49C92.8192 205 92.6581 203.405 92.8738 201.839L87.7284 185.896L95.2351 183.632L99.5106 199.59C100.629 200.704 101.464 202.071 101.948 203.575Z" fill="#FFB6B6"/>
<path d="M105.1 113.272C105.1 113.272 93.7651 113.767 93.2723 119.702C92.7795 125.637 78.7003 162.655 78.7003 162.655L89.7716 196.605L98.3826 191.05L93.462 164.507L110.069 139.198L105.1 113.272Z" fill="#606364"/>
<path d="M354.533 81.3803C354.533 58.155 334.973 45.3785 312.63 39.3271C283.985 31.5687 263.005 47.2682 270.728 81.3803C272.478 89.1115 276.664 98.1411 281.846 105.865H322.965C336.7 96.8907 354.533 99.4074 354.533 81.3803Z" fill="#606364"/>
<path d="M76.8194 354.491L82.8172 355.393L89.5695 328.692L80.7182 327.361L76.8194 354.491Z" fill="#FFB6B6"/>
<path d="M95.8801 369.692C95.7523 370.712 94.9275 371.447 94.0379 371.335L82.0972 369.828C82.0972 369.828 81.5161 364.939 76.9809 362.294L75.8005 369.033L69.6407 368.256L71.7533 357.447C71.7533 357.447 70.8365 351.406 74.6322 348.857C78.428 346.307 75.6042 346.372 75.6042 346.372L77.796 339.794L86.9664 342.067L85.7075 352.669L88.907 363.753L95.121 367.874C95.6741 368.241 95.9724 368.955 95.8801 369.692Z" fill="#2F2E41"/>
<path d="M149.649 356.122L155.712 356.266L159.092 328.929L150.145 328.716L149.649 356.122Z" fill="#FFB6B6"/>
<path d="M170.451 368.817C170.451 369.845 169.724 370.678 168.828 370.678H156.793C156.793 370.678 155.609 365.901 150.78 363.844L150.447 370.678H144.238L144.991 359.69C144.991 359.69 143.33 353.811 146.779 350.806C150.228 347.801 147.434 348.219 147.434 348.219L148.791 341.418L158.172 342.525L158.241 353.201L162.794 363.798L169.472 367.109C170.066 367.403 170.451 368.075 170.451 368.817Z" fill="#2F2E41"/>
<path d="M104.326 175.929L92.6418 214.675L94.7415 273.26L77.8925 333.024H91.2702L119.144 274.064L126.677 221.812L147.505 335.152H160.448L157.429 216.358L148.013 174.909L104.326 175.929Z" fill="#2F2E41"/>
<path d="M134.297 98.9471L117.533 97.9275L112.961 107.104L96.1977 116.281L108.389 148.909L98.3826 194.136C98.3826 194.136 108.678 184.532 120.525 196.605C138.07 214.484 156.199 205.864 156.199 205.864L145.743 158.334L149.433 118.828C149.908 115.711 154.25 111.828 151.279 110.803L138.869 105.575L134.297 98.9471Z" fill="#606364"/>
<path d="M130.596 104.747H110.546C110.576 103.38 110.376 102.022 109.963 100.792C109.952 102.157 109.745 103.504 109.356 104.747H108.445C107.052 104.745 105.924 103.106 105.922 101.084C101.211 95.8324 101.829 89.3893 105.922 82.169C105.923 72.9079 111.377 59.0247 117.304 64.8342C117.495 64.8197 120.499 62.8878 120.691 62.8878C125.905 62.894 127.698 69.7247 129.272 76.9407C131.066 75.7404 132.302 80.7506 133.197 89.5691C133.458 92.1425 133.69 95.0402 133.898 98.2026C134.472 100.856 133.457 103.683 131.629 104.518C131.295 104.67 130.946 104.749 130.595 104.75L130.596 104.747Z" fill="#2F2E41"/>
<path d="M126.498 96.6193C134.635 96.6193 141.232 89.9992 141.232 81.8329C141.232 73.6665 134.635 67.0464 126.498 67.0464C118.361 67.0464 111.765 73.6665 111.765 81.8329C111.765 89.9992 118.361 96.6193 126.498 96.6193Z" fill="#FFB6B6"/>
<path d="M127.906 105.248C126.526 107.094 124.111 107.829 121.941 107.063L115.38 104.747C114.766 104.747 114.244 104.386 114.215 103.918L114.212 103.866C114.146 102.891 112.352 102.727 111.935 103.65C111.767 104.022 111.577 104.388 111.363 104.747H110.174V75.974C110.174 71.0389 115.421 67.0382 121.893 67.0382C127.418 67.0382 132.193 69.9816 133.351 74.1015C133.351 74.1015 141.566 81.7842 136.724 86.1035C131.883 90.4228 138.926 93.9386 138.926 93.9386C140.325 98.9157 135.879 107.005 129.583 108.653C128.842 108.847 128.691 105.248 127.906 105.248Z" fill="#2F2E41"/>
<path d="M144.855 79.6371C144.251 80.4982 142.672 82.7558 137.747 82.4084C136.493 82.3177 132.038 81.0873 128.796 81.1477C126.647 81.1855 125.324 81.1704 122.678 81.1477C119.55 81.1175 118.694 81.0571 118.09 80.3924C116.92 79.1008 117.883 76.8047 117.325 76.6159C116.858 76.4572 115.65 77.8772 115.031 79.6371C113.731 83.3306 118.395 88.4743 118.854 93.2328C119.344 98.3613 114.526 88.5347 115.031 93.2328C115.597 98.5199 117.623 98.1196 117.6 100.031C117.592 100.318 117.508 100.567 117.325 100.786C117.164 100.982 117.004 101.058 114.266 101.541C110.993 102.123 109.349 102.41 108.913 102.296C107.789 102.009 106.649 100.416 105.854 99.2752C104.539 97.4096 105.472 99.2903 105.854 97.0093C106.221 94.8038 107.368 94.5168 107.383 92.4774C107.399 89.9093 105.586 89.1314 104.325 86.4349C101.992 81.4498 104.271 75.6793 105.089 73.5946C105.482 72.5949 106.195 71.3296 107.444 69.239C108.447 67.5608 109.778 66.0824 111.402 64.9746C113.835 63.3144 116.66 62.1768 119.716 61.726C121.389 61.4791 123.096 61.6088 124.741 61.9992L129.003 63.0107C130.795 63.4358 132.483 64.2064 133.972 65.2781C135.36 65.2826 136.564 66.1686 137.04 67.4564C137.09 67.5911 137.135 67.6696 137.172 67.6581C144.855 65.2862 144.849 72.3115 144.765 76.7001C144.757 77.1493 144.773 77.5468 144.832 77.8697V77.8923C144.985 78.7609 145.023 79.3954 144.855 79.6371Z" fill="#2F2E41"/>
<path d="M54.4324 360.291C53.1617 360.371 52.4594 358.787 53.4208 357.863L53.5164 357.482C53.5039 357.451 53.4913 357.421 53.4786 357.39C52.1905 354.309 49.8842 357.218 46.5605 357.425C41.6724 357.729 41.7454 361.439 43.639 365.777C44.1531 366.955 39.7895 357.453 39.7895 351.074C39.7895 349.471 39.8769 347.868 40.0557 346.269C40.2027 344.962 40.4053 343.662 40.6675 342.374C42.0857 335.413 45.1566 328.783 49.5861 323.245C51.7154 322.077 53.4912 320.251 54.5638 318.062C54.9492 317.272 58.2599 316.605 58.4029 315.74C58.1606 315.772 54.4804 311.886 54.6632 311.659C54.3254 311.144 53.721 310.889 53.3522 310.387C51.5178 307.891 48.9906 308.327 47.6712 311.719C44.8528 313.146 44.8256 315.514 46.5549 317.791C47.6551 319.239 47.8063 321.199 48.7717 322.75C48.6723 322.878 48.5691 323.002 48.4697 323.129C48.4316 323.178 48.3935 323.227 48.3556 323.277C46.7973 325.3 43.686 324.782 42.8182 322.377C42.7549 322.202 42.2178 331.702 42.622 321.869C43.0261 312.037 39.5024 317.042 37.7184 314.775C35.5875 312.066 31.2529 313.297 30.8774 316.727C30.8738 316.76 30.8703 316.793 30.8669 316.826C31.1307 316.975 31.3892 317.134 31.6416 317.301C33.0805 318.256 32.5827 320.495 30.8777 320.759L30.8391 320.765C30.9344 321.718 31.0973 322.663 31.3357 323.592C29.0594 332.426 33.972 335.645 40.9881 335.791L41.3537 336.314C40.6893 338.232 40.1548 340.197 39.7537 342.187C39.3763 344.033 39.1141 345.898 38.9672 347.772L38.961 347.852C38.8393 349.447 36.8296 350.125 35.8195 348.888C35.5624 348.574 35.2993 348.298 35.0342 348.079C31.9923 345.572 27.6947 344.648 24.413 342.632C22.8333 341.662 20.809 342.916 21.0847 344.754L21.0981 344.842C21.5868 345.041 22.0635 345.273 22.5243 345.532C22.7883 345.681 23.047 345.84 23.2997 346.008C24.7387 346.963 24.2406 349.202 22.5351 349.465L22.4965 349.471C22.4687 349.475 22.4448 349.479 22.4171 349.483L22.4423 349.543C23.5395 352.133 26.1618 353.811 28.9622 353.657C32.2585 353.476 36.3529 356.242 39.9643 361.133L39.9683 361.133C40.6833 364.258 41.7282 367.312 43.0709 370.223H54.1546C54.1944 370.099 54.2301 369.972 54.2659 369.848C53.2409 369.912 52.208 369.852 51.199 369.665C52.0213 368.652 52.8436 367.631 53.666 366.619C53.6859 366.599 53.7018 366.579 53.7176 366.559C54.1348 366.04 54.5559 365.526 54.973 365.008L54.9732 365.007C54.9993 363.416 54.809 361.83 54.4324 360.291Z" fill="#F2F2F2"/>
<path d="M0 371.265C0 371.673 0.326006 372 0.731972 372H222.951C223.357 372 223.683 371.673 223.683 371.265C223.683 370.858 223.357 370.531 222.951 370.531H0.731972C0.326006 370.531 0 370.858 0 371.265Z" fill="#CCCCCC"/>
<path d="M333.34 19.4458V84.8775C333.34 90.6639 328.649 95.3712 322.884 95.3712H257.686C251.92 95.3712 247.23 90.6639 247.23 84.8775V19.4458C247.23 13.6594 251.92 8.952 257.686 8.952H322.884C328.649 8.952 333.34 13.6594 333.34 19.4458ZM322.884 94.1367C327.979 94.1367 332.11 89.9912 332.11 84.8775V51.8894C332.11 28.8576 313.505 10.1866 290.556 10.1866H257.686C252.591 10.1866 248.46 14.332 248.46 19.4458V84.8775C248.46 89.9912 252.591 94.1367 257.686 94.1367H322.884Z" fill="#3F3D56"/>
<path d="M282.562 145.982H261.514C260.983 145.982 260.551 145.549 260.551 145.016C260.551 144.484 260.983 144.051 261.514 144.051H282.562C283.093 144.051 283.524 144.484 283.524 145.016C283.524 145.549 283.093 145.982 282.562 145.982Z" fill="#3F3D56"/>
<path d="M379.743 1.93154H358.695C358.164 1.93154 357.733 1.49821 357.733 0.965667C357.733 0.433121 358.164 0 358.695 0H379.743C380.274 0 380.705 0.433121 380.705 0.965667C380.705 1.49821 380.274 1.93154 379.743 1.93154Z" fill="#3F3D56"/>
<path d="M379.743 22.5263H358.695C358.164 22.5263 357.733 22.0929 357.733 21.5604C357.733 21.0278 358.164 20.5947 358.695 20.5947H379.743C380.274 20.5947 380.705 21.0278 380.705 21.5604C380.705 22.0929 380.274 22.5263 379.743 22.5263Z" fill="#3F3D56"/>
<path d="M391.038 12.2356H347.4C346.87 12.2356 346.438 11.8023 346.438 11.2698C346.438 10.7372 346.87 10.3041 347.4 10.3041H391.038C391.568 10.3041 392 10.7372 392 11.2698C392 11.8023 391.568 12.2356 391.038 12.2356Z" fill="#3F3D56"/>
<path d="M347.477 163.272H256.465C251.034 163.272 246.615 158.837 246.615 153.386V120.072C246.615 114.621 251.034 110.186 256.465 110.186H347.477C352.909 110.186 357.328 114.621 357.328 120.072V153.386C357.328 158.837 352.909 163.272 347.477 163.272ZM256.465 111.421C251.712 111.421 247.845 115.301 247.845 120.072V153.386C247.845 158.157 251.712 162.038 256.465 162.038H347.477C352.23 162.038 356.097 158.157 356.097 153.386V120.072C356.097 115.301 352.23 111.421 347.477 111.421H256.465Z" fill="#3F3D56"/>
<path d="M382.42 105.865H371.436C352.803 105.865 337.645 90.6524 337.645 71.9538V60.9301C337.645 57.1161 340.737 54.0135 344.537 54.0135H382.42C386.22 54.0135 389.311 57.1161 389.311 60.9301V98.9483C389.311 102.762 386.22 105.865 382.42 105.865ZM344.537 55.248C341.41 55.248 338.875 57.7919 338.875 60.9298V71.9538C338.875 90.0006 353.453 104.63 371.435 104.63H382.42C385.546 104.63 388.081 102.087 388.081 98.9486V74.7337C388.081 63.972 379.388 55.248 368.665 55.248H344.537Z" fill="#3F3D56"/>
<path d="M157.723 207.463C158.008 211.407 160.268 214.457 162.769 214.275C165.27 214.092 167.066 210.746 166.78 206.8C166.688 205.222 166.22 203.69 165.416 202.331L163.997 185.632L156.203 186.467L158.429 202.84C157.829 204.302 157.587 205.887 157.723 207.463Z" fill="#FFB6B6"/>
<path d="M145.792 110.186C145.792 110.186 157.126 110.681 157.619 116.616C158.112 122.551 163.533 160.633 163.533 160.633L165.997 198.716L157.126 200.2L146.358 155.193L145.792 110.186Z" fill="#606364"/>
<path d="M312.015 125.285C314.354 120.81 317.32 117.582 320.587 115.124H282.074C291.986 129.334 305.132 138.454 312.015 125.285Z" fill="#606364"/>
</g>
<defs>
<clipPath id="clip0_13_487">
<rect width="392" height="372" fill="white"/>
</clipPath>
</defs>
</svg>
