<svg width="622" height="425" viewBox="0 0 622 425" fill="none" xmlns="http://www.w3.org/2000/svg">
<path d="M56.4235 187.924C-20.4596 170.604 2.43365 75.5419 10.6122 1H622.438V361.742C584.526 399.392 547.261 440.401 499.089 417.285C444.684 391.178 534.479 297.062 480.445 270.272C426.342 243.448 398.622 362.73 342.478 339.99C281.461 315.275 380.529 194.854 315.844 180.851C262.053 169.207 254.962 282.698 203.979 262.694C153.469 242.876 231.792 156.047 183.736 131.342C135.465 106.526 109.844 199.959 56.4235 187.924Z" fill="white"/>
<path d="M628 1H622.438M622.438 1H10.6122C2.43365 75.5419 -20.4596 170.604 56.4235 187.924C109.844 199.959 135.465 106.526 183.736 131.342C231.792 156.047 153.469 242.876 203.979 262.694C254.962 282.698 262.053 169.207 315.844 180.851C380.529 194.854 281.461 315.275 342.478 339.99C398.622 362.73 426.342 243.448 480.445 270.272C534.479 297.062 444.684 391.178 499.089 417.285C547.261 440.401 584.526 399.392 622.438 361.742V1Z" stroke="white"/>
</svg>
